<?xml version="1.0" encoding="UTF-8"?>
<svg id="Layer_1" data-name="Layer 1" xmlns="http://www.w3.org/2000/svg" viewBox="0 0 342 231">
  <defs>
    <style>
      .cls-1 {
        fill: #231f20;
      }

      .cls-1, .cls-2 {
        stroke-width: 0px;
      }

      .cls-2 {
        fill: #3a54a5;
      }
    </style>
  </defs>
  <path class="cls-2" d="M85.11,46.42v15.5h-30.33v15.95h26.96v15.5h-26.96v30.56h-18.65V46.42h48.98Z"/>
  <path class="cls-2" d="M93.54,46.42h17.97v15.73h-17.97v-15.73ZM94.1,67.76h16.85v56.17h-16.85v-56.17Z"/>
  <path class="cls-2" d="M122.75,46.42h16.85v55.49c0,6.07,2.58,7.64,7.08,7.64v14.38c-15.61,0-23.93-3.15-23.93-18.31v-59.2Z"/>
  <path class="cls-2" d="M202.84,98.99c0,15.73-7.41,26.06-24.71,26.06s-24.71-10.33-24.71-26.06v-6.51c0-17.19,8.99-25.84,24.71-25.84s24.71,8.65,24.71,25.84v6.51ZM186,98.21v-4.94c0-8.31-1.8-12.47-7.86-12.47s-7.86,4.16-7.86,12.47v4.94c0,7.41.9,12.69,7.86,12.69s7.86-5.28,7.86-12.69Z"/>
  <path class="cls-2" d="M241.6,84.95c-2.13-2.47-4.38-3.93-9.55-3.93-2.36,0-5.28.45-5.28,2.92,0,1.91,1.8,2.81,6.96,3.82,15.39,2.92,21.12,9.1,21.12,19.43,0,11.23-7.98,17.86-22.47,17.86-11.46,0-18.87-2.47-23.93-9.32l13.03-9.44c1.91,2.58,4.16,4.38,10.56,4.38,3.71,0,5.95-1.01,5.95-3.03,0-2.13-1.91-2.92-7.19-4.04-12.69-2.81-20.89-7.98-20.89-18.98s8.09-17.97,22.47-17.97c9.21,0,17.3,2.13,21.68,9.32l-12.47,8.99Z"/>
  <path class="cls-2" d="M281.15,89.67h10v-1.69c0-5.5-1.01-7.64-8.87-7.64-4.83,0-7.08.9-9.1,3.82l-11.79-8.2c4.38-6.96,10.9-9.32,22.8-9.32,14.6,0,23.37,4.16,23.37,21.46v35.84h-16.4v-4.61c-1.91,3.03-4.94,5.73-11.12,5.73-11.01,0-19.55-6.07-19.55-17.86s8.99-17.52,20.67-17.52ZM291.15,101.57h-7.64c-4.27,0-6.63,1.46-6.63,5.17,0,3.26,2.58,5.05,6.85,5.05,5.62,0,7.41-3.37,7.41-8.54v-1.69Z"/>
  <path class="cls-1" d="M73,153.93v-2.16c0-10.32,4-13.04,13.68-13.04h2.96v8.96h-1.92c-3.76,0-4.56,1.68-4.56,5.68v.56h6.48v8.64h-6.48v31.36h-10.16v-31.36h-5.12v-8.64h5.12Z"/>
  <path class="cls-1" d="M107.72,169.93h7.92v-2.32c0-4.48-1.36-5.92-7.12-5.92-3.92,0-5.84.56-7.52,3.2l-7.2-5.04c2.96-4.88,7.44-6.64,15.68-6.64,10.32,0,16.16,3.04,16.16,14.48v26.24h-10v-3.52c-1.6,2.72-4,4.24-8.64,4.24-8.32,0-14.08-4.4-14.08-12.56s6.4-12.16,14.8-12.16ZM115.64,177.45h-6.72c-4.16,0-6,1.36-6,4.48s2.32,4.48,5.84,4.48c4.64,0,6.88-2,6.88-7.44v-1.52Z"/>
  <path class="cls-1" d="M166.6,193.93h-10.16v-23.44c0-6.4-2.48-8.48-6.08-8.48s-6.32,2.72-6.32,8.4v23.52h-10.24v-40h10v3.36c1.52-2.08,4.4-4.08,8.88-4.08,4.8,0,8.72,1.84,11.2,5.36,2.56-3.12,6.48-5.36,11.52-5.36,8.72,0,13.84,5.28,13.84,15.68v25.04h-10.24v-23.44c0-6-2.08-8.48-6.16-8.48-3.68,0-6.24,2.72-6.24,8.4v23.52Z"/>
  <path class="cls-1" d="M198.2,138.73h11.04v9.92h-11.04v-9.92ZM198.6,153.93h10.24v40h-10.24v-40Z"/>
  <path class="cls-1" d="M218.2,138.73h10.24v40.08c0,4.32,1.28,6.32,5.6,6.32v8.8c-10.8,0-15.84-2.8-15.84-12.8v-42.4Z"/>
  <path class="cls-1" d="M248.04,153.93l8.88,25.6,8-25.6h10.32l-14,41.84c-3.6,10.72-7.12,13.36-18.32,13.36v-9.12c5.52,0,7.68-.88,9.36-5.52l-14.96-40.56h10.72Z"/>
</svg>